<svg width="40" height="40" viewBox="0 0 40 40" fill="none" xmlns="http://www.w3.org/2000/svg">
<path d="M38 2L20 20M38 2V12.125M38 2H27.875M35.75 21.125V30.8C35.75 33.3202 35.75 34.5805 35.2595 35.543C34.8282 36.3897 34.1397 37.0782 33.293 37.5095C32.3305 38 31.0702 38 28.55 38H9.2C6.67977 38 5.41964 38 4.45705 37.5095C3.6103 37.0782 2.92189 36.3897 2.49048 35.543C2 34.5805 2 33.3202 2 30.8V11.45C2 8.92977 2 7.66964 2.49048 6.70705C2.92189 5.8603 3.6103 5.17189 4.45705 4.74048C5.41964 4.25 6.67975 4.25 9.2 4.25H18.875" stroke="black" stroke-width="3" stroke-linecap="round" stroke-linejoin="round"/>
</svg>
