<svg width="52" height="52" viewBox="0 0 52 52" fill="none" xmlns="http://www.w3.org/2000/svg">
<path d="M48.1138 24.9038L51.237 24.8053C51.2065 23.8368 50.7285 22.9372 49.943 22.37C49.1575 21.8027 48.1532 21.6322 47.2242 21.908L48.1138 24.9038ZM26.3462 3.13635L29.342 4.0257C29.6178 3.09683 29.4473 2.09257 28.88 1.307C28.3128 0.521425 27.4132 0.0433999 26.4447 0.0128999L26.3462 3.13635ZM47.2242 21.908C45.929 22.2925 44.554 22.5 43.125 22.5V28.75C45.1625 28.75 47.1365 28.4535 49.003 27.8995L47.2242 21.908ZM43.125 22.5C35.186 22.5 28.75 16.0641 28.75 8.125H22.5C22.5 19.5159 31.7342 28.75 43.125 28.75V22.5ZM28.75 8.125C28.75 6.69602 28.9575 5.32103 29.342 4.0257L23.3505 2.24697C22.7965 4.11355 22.5 6.0874 22.5 8.125H28.75ZM25.625 6.25C25.8335 6.25 26.0412 6.25328 26.248 6.2598L26.4447 0.0128999C26.1725 0.00432494 25.8993 0 25.625 0V6.25ZM6.25 25.625C6.25 14.9245 14.9245 6.25 25.625 6.25V0C11.4727 0 0 11.4727 0 25.625H6.25ZM25.625 45C14.9245 45 6.25 36.3255 6.25 25.625H0C0 39.7773 11.4727 51.25 25.625 51.25V45ZM45 25.625C45 36.3255 36.3255 45 25.625 45V51.25C39.7773 51.25 51.25 39.7773 51.25 25.625H45ZM44.9902 25.002C44.9967 25.2088 45 25.4165 45 25.625H51.25C51.25 25.3507 51.2458 25.0775 51.237 24.8053L44.9902 25.002Z" fill="#F5F5F7"/>
</svg>
