<svg width="36" height="36" viewBox="0 0 36 36" fill="none" xmlns="http://www.w3.org/2000/svg">
<path fill-rule="evenodd" clip-rule="evenodd" d="M36 36H28.6031V23.4036C28.6031 19.9484 27.2892 18.0206 24.5565 18.0206C21.5805 18.0206 20.027 20.0308 20.027 23.4036V36H12.8997V12.0012H20.027V15.2355C20.027 15.2355 22.172 11.2713 27.263 11.2713C32.354 11.2713 35.9963 14.3783 35.9963 20.8094V36H36ZM4.39472 8.85682C1.96527 8.85682 0 6.87283 0 4.42841C0 1.98399 1.96901 0 4.39472 0C6.82042 0 8.78943 1.98399 8.78943 4.42841C8.78943 6.87283 6.82417 8.85682 4.39472 8.85682ZM0.714984 36H8.14932V12.0012H0.714984V36Z" fill="white"/>
</svg>
