<svg width="36" height="36" viewBox="0 0 36 36" fill="none" xmlns="http://www.w3.org/2000/svg">
<path d="M26.0649 0H9.93443C4.45659 0 0 4.4568 0 9.93464V26.0651C0 31.5432 4.45659 35.9998 9.93443 35.9998H26.0649C31.5432 35.9998 35.9998 31.543 35.9998 26.0651V9.93464C36 4.4568 31.5432 0 26.0649 0ZM32.8059 26.0651C32.8059 29.782 29.782 32.8057 26.0651 32.8057H9.93443C6.2178 32.8059 3.19408 29.782 3.19408 26.0651V9.93464C3.19408 6.21801 6.2178 3.19408 9.93443 3.19408H26.0649C29.7818 3.19408 32.8057 6.21801 32.8057 9.93464V26.0651H32.8059Z" fill="white"/>
<path d="M17.9999 8.72406C12.8849 8.72406 8.72363 12.8853 8.72363 18.0003C8.72363 23.1151 12.8849 27.2761 17.9999 27.2761C23.1149 27.2761 27.2761 23.1151 27.2761 18.0003C27.2761 12.8853 23.1149 8.72406 17.9999 8.72406ZM17.9999 24.0818C14.6463 24.0818 11.9177 21.3536 11.9177 18.0001C11.9177 14.6463 14.6461 11.9179 17.9999 11.9179C21.3536 11.9179 24.082 14.6463 24.082 18.0001C24.082 21.3536 21.3534 24.0818 17.9999 24.0818Z" fill="white"/>
<path d="M27.6651 6.01575C27.0497 6.01575 26.4452 6.26489 26.0106 6.70141C25.5739 7.1358 25.3228 7.74055 25.3228 8.35807C25.3228 8.97367 25.5741 9.57821 26.0106 10.0147C26.445 10.4491 27.0497 10.7004 27.6651 10.7004C28.2827 10.7004 28.8853 10.4491 29.3218 10.0147C29.7583 9.57821 30.0075 8.97346 30.0075 8.35807C30.0075 7.74055 29.7583 7.1358 29.3218 6.70141C28.8874 6.26489 28.2827 6.01575 27.6651 6.01575Z" fill="white"/>
</svg>
