<svg width="36" height="38" viewBox="0 0 36 38" fill="none" xmlns="http://www.w3.org/2000/svg">
<path d="M12.9847 31.8637C4.4242 34.4318 4.4242 27.5834 1 26.7274M24.9694 37V30.3742C25.0336 29.5578 24.9233 28.7371 24.6459 27.9666C24.3684 27.1961 23.9301 26.4936 23.36 25.9056C28.736 25.3063 34.386 23.2689 34.386 13.9209C34.3855 11.5305 33.466 9.23177 31.8178 7.50049C32.5983 5.40917 32.5431 3.09757 31.6637 1.04587C31.6637 1.04587 29.6435 0.446637 24.9694 3.57978C21.0453 2.51626 16.9088 2.51626 12.9847 3.57978C8.31067 0.446637 6.29039 1.04587 6.29039 1.04587C5.41102 3.09757 5.35583 5.40917 6.1363 7.50049C4.47578 9.24461 3.55535 11.5641 3.56815 13.9722C3.56815 23.2518 9.21808 25.2892 14.5941 25.9569C14.0308 26.539 13.5964 27.2332 13.3191 27.9942C13.0418 28.7553 12.9279 29.5662 12.9847 30.3742V37" stroke="white" stroke-width="2" stroke-linecap="round" stroke-linejoin="round"/>
</svg>
