<svg width="299" height="220" viewBox="0 0 299 220" fill="none" xmlns="http://www.w3.org/2000/svg">
<path d="M297 35.5001L275 50.0001C263.4 35.6003 252.833 29.6668 249 28.5C235.167 25.1667 203.6 25.4 188 53C172.4 80.6 183.167 108.5 190.5 119C226.9 159.8 263 136 276.5 119L298.5 133C294.5 145 274.5 157.333 265 162C217 181.2 182.667 154 171.5 138C148.7 112.8 152.333 72.5 157 55.5C162.833 37.5 185.1 1.30014 227.5 0.50014C269.9 -0.29986 291.5 23.5001 297 35.5001Z" fill="#7008CB"/>
<path d="M154.5 169.5C204.5 210.7 256.667 189 276.5 173L294.5 193.5C289.3 198.7 275.333 206.333 269 209.5C226.6 227.1 182.667 216.833 166 209.5C136 199.1 114.833 165.833 108 150.5H30.5L25 167.5L0.5 158L51 3.5H84.5C87.5 9.83333 97.2 35.5 112 87.5C126.8 139.5 146.5 163.833 154.5 169.5Z" fill="#D1D1D1"/>
<path d="M67.5 38L39.5 122.5H96L67.5 38Z" fill="#1F1F1F"/>
</svg>
