<svg width="48" height="36" viewBox="0 0 48 36" fill="none" xmlns="http://www.w3.org/2000/svg">
<path fill-rule="evenodd" clip-rule="evenodd" d="M45 30C45 30.3045 44.9415 30.5925 44.8575 30.867L31.5 16.5L45 6V30ZM5.334 32.919L18.87 18.495L24 22.3725L28.908 18.471L42.666 32.919C42.4515 32.9685 5.5485 32.9685 5.334 32.919ZM3 30V6L16.5 16.5L3.1425 30.867C3.0585 30.5925 3 30.3045 3 30ZM43.5 3L24 18L4.5 3H43.5ZM42 0H6C2.6865 0 0 2.6865 0 6V30C0 33.3135 2.6865 36 6 36H42C45.3135 36 48 33.3135 48 30V6C48 2.6865 45.3135 0 42 0Z" fill="white"/>
</svg>
